<?xml version="1.0" standalone="no"?><!DOCTYPE svg PUBLIC "-//W3C//DTD SVG 1.1//EN" "http://www.w3.org/Graphics/SVG/1.1/DTD/svg11.dtd"><svg t="1584586687638" class="icon" viewBox="0 0 1024 1024" version="1.1" xmlns="http://www.w3.org/2000/svg" p-id="10638" xmlns:xlink="http://www.w3.org/1999/xlink" width="200" height="200"><defs><style type="text/css"></style></defs><path d="M604.928 722.56l28.096-11.669333C752.277333 661.397333 832 543.36 832 410.112 832 230.528 688.512 85.333333 512 85.333333 335.488 85.333333 192 230.528 192 410.112c0 131.925333 78.144 249.024 195.648 299.370667l25.941333 11.114666 100.117334 172.032 91.221333-170.069333z m-250.88 65.365333C208.64 725.632 106.666667 579.925333 106.666667 410.112 106.666667 183.616 288.149333 0 512 0s405.333333 183.616 405.333333 410.112c0 171.456-103.978667 318.314667-251.584 379.584l-108.650666 202.56c-22.293333 41.557333-59.605333 42.133333-83.328 1.386667l-119.744-205.717334z" p-id="10639" fill="#ffffff"></path><path d="M512 603.370667c-106.261333 0-192-86.741333-192-193.258667 0-106.517333 85.738667-193.258667 192-193.258667s192 86.741333 192 193.28c0 106.496-85.738667 193.237333-192 193.237334z m0-85.333334c58.901333 0 106.666667-48.32 106.666667-107.925333s-47.765333-107.925333-106.666667-107.925333-106.666667 48.32-106.666667 107.946666c0 59.584 47.765333 107.904 106.666667 107.904z" p-id="10640" fill="#ffffff"></path></svg>