<?xml version="1.0" standalone="no"?><!DOCTYPE svg PUBLIC "-//W3C//DTD SVG 1.1//EN" "http://www.w3.org/Graphics/SVG/1.1/DTD/svg11.dtd"><svg t="1584586027227" class="icon" viewBox="0 0 1024 1024" version="1.1" xmlns="http://www.w3.org/2000/svg" p-id="3714" xmlns:xlink="http://www.w3.org/1999/xlink" width="200" height="200"><defs><style type="text/css"></style></defs><path d="M589.466706 801.723737H248.301236c-11.058949 0-20.023445-8.964497-20.023446-20.023445s8.964497-20.023445 20.023446-20.023446h341.16547c11.058949 0 20.023445 8.964497 20.023445 20.023446s-8.964497 20.023445-20.023445 20.023445zM775.16514 801.723737h-48.738068c-11.058949 0-20.023445-8.964497-20.023445-20.023445s8.964497-20.023445 20.023445-20.023446h48.738068c11.058949 0 20.023445 8.964497 20.023445 20.023446s-8.964497 20.023445-20.023445 20.023445zM513.350581 536.635345c-66.019302 0-128.087978-25.709103-174.770638-72.391763-46.682661-46.683662-72.392765-108.751337-72.392765-174.77164 0-66.019302 25.709103-128.087978 72.392765-174.770638 46.682661-46.682661 108.751337-72.392765 174.770638-72.392765 66.020303 0 128.088979 25.710104 174.77164 72.392765 46.682661 46.682661 72.392765 108.751337 72.392765 174.770638 0 66.020303-25.709103 128.088979-72.392765 174.77164-46.682661 46.683662-108.751337 72.391763-174.77164 72.391763z m0-454.279915c-114.204722 0-207.116512 92.912791-207.116512 207.116512 0 114.204722 92.91179 207.116512 207.116512 207.116513s207.117514-92.91179 207.117514-207.116513c0-114.203721-92.912791-207.116512-207.117514-207.116512z" p-id="3715"></path><path d="M976.644051 917.195943H50.057112a20.025448 20.025448 0 0 1-19.615969-24.046155C52.910453 783.575487 113.071896 683.805667 199.845499 612.22185c43.211596-35.646739 91.677345-63.443286 144.053672-82.614734 54.20647-19.841232 111.218225-29.902012 169.45141-29.902012 58.234186 0 115.245941 10.06078 169.452412 29.902012 52.376327 19.171448 100.843077 46.967995 144.053672 82.614734 86.772602 71.583817 146.935046 171.352637 169.403354 280.927938a20.021443 20.021443 0 0 1-19.615968 24.046155z m-901.348387-40.046891h876.110836C899.603845 680.227477 719.204616 539.751995 513.350581 539.751995c-205.853033 0-386.252262 140.475483-438.054917 337.397057z" p-id="3716"></path></svg>